<?xml version="1.0" standalone="no"?>
<!DOCTYPE svg PUBLIC "-//W3C//DTD SVG 20010904//EN"
 "http://www.w3.org/TR/2001/REC-SVG-20010904/DTD/svg10.dtd">
<svg version="1.0" xmlns="http://www.w3.org/2000/svg"
 width="259.000000pt" height="61.000000pt" viewBox="0 0 259.000000 61.000000"
 preserveAspectRatio="xMidYMid meet">
<metadata>
Created by potrace 1.10, written by Peter Selinger 2001-2011
</metadata>
<g transform="translate(0.000000,61.000000) scale(0.100000,-0.100000)"
fill="#000000" stroke="none">
<path d="M455 520 c-3 -5 -23 -14 -43 -20 -47 -12 -87 -49 -103 -95 -7 -19
-21 -37 -31 -41 -10 -3 -20 -20 -24 -42 -4 -20 -12 -44 -19 -52 -6 -8 -15 -22
-18 -32 -8 -21 29 -31 47 -12 8 8 23 14 34 14 11 0 22 7 26 15 3 8 11 15 18
15 10 0 10 -2 0 -9 -10 -6 -8 -10 10 -16 12 -4 30 -9 38 -12 8 -2 22 -5 31 -6
9 -1 15 -7 12 -14 -3 -7 3 -16 13 -20 27 -9 34 -23 34 -66 0 -72 -7 -77 -126
-77 -68 0 -103 -4 -99 -10 8 -14 512 -14 520 0 4 6 -31 10 -99 10 -94 0 -106
2 -116 19 -15 30 -12 97 6 115 17 18 34 21 34 7 0 -5 7 -12 16 -15 11 -4 15
-2 11 8 -8 21 80 26 111 7 19 -11 22 -11 23 0 1 8 2 21 3 29 0 8 -11 23 -26
32 -30 19 -39 44 -12 34 9 -3 20 -6 25 -6 5 0 9 -7 9 -15 0 -8 12 -21 28 -30
22 -13 23 -15 5 -10 -14 4 -23 2 -23 -5 0 -14 42 -9 47 6 2 6 -8 22 -21 35
-14 13 -26 29 -26 35 0 6 -9 19 -20 29 -24 21 -26 45 -5 45 8 0 15 5 15 10 0
6 -4 10 -10 10 -5 0 -7 6 -4 13 6 16 -16 36 -46 42 -12 2 -28 9 -36 16 -8 6
-14 8 -14 4 0 -4 -8 3 -18 15 -10 12 -30 24 -44 25 -15 2 -32 6 -38 10 -17 11
-89 14 -95 5z m105 -47 c16 -3 39 -16 51 -29 12 -13 28 -24 36 -24 7 0 18 -9
25 -20 7 -11 18 -20 25 -20 6 0 14 -4 18 -9 3 -6 -12 -8 -36 -6 -23 3 -50 0
-60 -6 -13 -6 -19 -6 -19 1 0 5 -9 20 -21 31 l-21 21 -20 -20 c-26 -26 -16
-42 27 -42 24 0 38 -6 45 -20 6 -11 15 -20 21 -20 6 0 3 8 -7 18 -17 16 -16
17 14 20 18 2 38 -3 46 -10 11 -12 9 -19 -15 -48 -16 -19 -29 -29 -29 -22 0 7
-7 12 -15 12 -8 0 -15 -4 -15 -10 0 -5 5 -10 12 -10 6 0 9 -2 6 -5 -7 -7 -58
19 -58 30 0 6 -4 4 -9 -4 -8 -12 -16 -13 -48 -2 -35 12 -43 11 -75 -8 -36 -19
-37 -19 -33 -1 2 11 1 19 -3 19 -4 -1 -14 -1 -22 0 -21 2 29 30 55 31 17 0 17
2 5 10 -13 9 -13 11 0 20 12 8 11 10 -5 10 -12 0 -26 5 -32 11 -9 9 -10 7 -6
-10 3 -11 10 -21 17 -21 6 0 3 -7 -6 -14 -10 -7 -36 -12 -57 -11 -30 2 -38 -1
-34 -11 3 -8 -1 -14 -11 -14 -9 0 -16 3 -16 8 0 15 20 37 32 37 7 0 14 11 15
25 0 14 2 30 3 35 1 6 2 14 1 19 -1 5 4 4 11 -1 10 -8 18 -8 32 3 18 13 18 14
2 14 -9 0 -15 4 -11 10 3 5 12 7 20 3 8 -3 15 -1 15 5 0 15 72 42 99 36 13 -3
36 -7 51 -11z m-76 -213 c16 -6 26 -17 26 -29 0 -32 -17 -33 -31 -2 -7 16 -17
27 -21 25 -4 -3 -8 0 -8 5 0 13 2 13 34 1z m217 -20 c6 0 7 6 3 13 -5 8 -2 7
9 -2 21 -16 20 -18 -15 -25 -17 -3 -31 1 -40 12 -11 13 -11 15 5 9 12 -4 17
-1 18 11 1 16 2 16 6 0 2 -10 9 -18 14 -18z m-121 -3 c0 -8 -11 -24 -25 -37
-28 -26 -32 -18 -12 23 12 28 37 37 37 14z"/>
<path d="M348 345 c-6 -27 1 -32 19 -14 12 12 7 39 -7 39 -4 0 -10 -11 -12
-25z"/>
<path d="M1041 388 c-50 -33 -75 -81 -73 -140 1 -65 27 -108 82 -135 49 -25
97 -28 150 -9 32 12 35 17 41 62 3 27 9 57 13 67 7 15 2 17 -48 17 l-56 0 7
-27 c4 -16 7 -41 7 -58 1 -25 -3 -30 -26 -33 -81 -9 -119 148 -52 215 32 31
78 26 112 -13 13 -15 24 -25 26 -23 2 2 1 22 -3 44 -5 33 -10 40 -31 43 -14 1
-45 5 -70 8 -37 5 -51 1 -79 -18z"/>
<path d="M1328 298 c2 -57 8 -118 14 -136 19 -63 98 -89 174 -57 48 20 64 63
64 170 0 48 5 95 10 106 10 17 7 19 -29 19 l-40 0 11 -30 c5 -17 8 -68 7 -114
-3 -65 -8 -89 -23 -105 -26 -29 -60 -26 -86 7 -20 25 -22 36 -18 135 l3 107
-45 0 -46 0 4 -102z"/>
<path d="M1665 383 c8 -21 7 -247 -1 -268 -5 -12 2 -15 31 -15 32 0 36 3 30
17 -12 26 -19 160 -9 150 5 -5 20 -43 34 -85 24 -73 26 -77 55 -77 29 0 31 4
56 77 14 43 28 81 32 84 11 11 8 -111 -3 -140 -9 -26 -9 -26 43 -26 l52 0 0
150 0 151 -40 -3 c-44 -3 -51 -14 -93 -123 -10 -27 -23 -50 -28 -49 -5 1 -20
33 -34 71 -32 91 -43 103 -92 103 -34 0 -39 -3 -33 -17z m79 -73 c21 -54 20
-58 -9 -30 -14 13 -25 34 -25 47 0 35 16 27 34 -17z m196 -7 c0 -12 -3 -29 -7
-38 -5 -14 -8 -12 -18 11 -8 20 -8 35 -1 50 12 25 26 13 26 -23z m-120 -124
c0 -8 -3 -19 -7 -22 -8 -9 -32 24 -33 46 0 15 3 15 20 5 11 -7 20 -20 20 -29z"/>
<path d="M2078 271 c3 -83 0 -136 -7 -150 -11 -20 -10 -21 41 -21 l53 0 0 150
0 150 -45 0 -45 0 3 -129z"/>
<path d="M2255 250 l0 -150 45 0 45 0 0 150 0 150 -45 0 -45 0 0 -150z"/>
</g>
</svg>
